<svg width="170" height="224" viewBox="0 0 170 224" fill="none" xmlns="http://www.w3.org/2000/svg">
<path d="M58.2573 200.16C60.1453 200.16 61.6093 200.608 62.6493 201.504C63.7053 202.384 64.2333 203.56 64.2333 205.032C64.2333 206.648 63.7133 207.88 62.6733 208.728C61.6333 209.576 60.1693 210 58.2813 210L57.8973 210.216H54.7533V216H50.6973V200.16H58.2573ZM57.6813 207.288C58.4813 207.288 59.0813 207.128 59.4813 206.808C59.8813 206.488 60.0813 205.976 60.0813 205.272C60.0813 204.584 59.8813 204.08 59.4813 203.76C59.0813 203.44 58.4813 203.28 57.6813 203.28H54.7533V207.288H57.6813ZM60.1053 208.152L65.1693 216H60.6093L56.5533 209.064L60.1053 208.152ZM72.6481 216.24C71.3201 216.24 70.1681 215.992 69.1921 215.496C68.2321 215 67.4881 214.288 66.9601 213.36C66.4321 212.432 66.1681 211.312 66.1681 210C66.1681 208.688 66.4321 207.568 66.9601 206.64C67.4881 205.712 68.2241 205 69.1681 204.504C70.1281 204.008 71.2241 203.76 72.4561 203.76C73.7201 203.76 74.7921 204.008 75.6721 204.504C76.5681 204.984 77.2481 205.656 77.7121 206.52C78.1761 207.368 78.4081 208.344 78.4081 209.448C78.4081 209.736 78.4001 210.024 78.3841 210.312C78.3681 210.6 78.3441 210.84 78.3121 211.032H68.8081V208.848H76.5121L74.5681 209.592C74.5681 208.632 74.3921 207.896 74.0401 207.384C73.7041 206.872 73.1761 206.616 72.4561 206.616C71.9441 206.616 71.5041 206.736 71.1361 206.976C70.7841 207.216 70.5121 207.592 70.3201 208.104C70.1441 208.616 70.0561 209.272 70.0561 210.072C70.0561 210.856 70.1601 211.496 70.3681 211.992C70.5761 212.472 70.8721 212.824 71.2561 213.048C71.6401 213.256 72.1041 213.36 72.6481 213.36C73.2561 213.36 73.7361 213.24 74.0881 213C74.4561 212.76 74.7281 212.424 74.9041 211.992L78.1681 213.072C77.9441 213.76 77.5521 214.344 76.9921 214.824C76.4481 215.288 75.7921 215.64 75.0241 215.88C74.2721 216.12 73.4801 216.24 72.6481 216.24ZM84.7226 198.912V211.92C84.7226 212.448 84.8106 212.824 84.9866 213.048C85.1626 213.272 85.4586 213.384 85.8746 213.384C86.1146 213.384 86.3146 213.368 86.4746 213.336C86.6346 213.304 86.8266 213.256 87.0506 213.192L86.7866 215.64C86.4986 215.816 86.1226 215.96 85.6586 216.072C85.1946 216.184 84.7386 216.24 84.2906 216.24C83.0106 216.24 82.0826 215.944 81.5066 215.352C80.9306 214.76 80.6426 213.792 80.6426 212.448V198.912H84.7226ZM95.4256 208.392C95.4256 207.832 95.2656 207.392 94.9456 207.072C94.6416 206.736 94.2256 206.568 93.6976 206.568C93.1696 206.568 92.7136 206.704 92.3296 206.976C91.9616 207.232 91.7056 207.696 91.5616 208.368L88.1056 207.552C88.3296 206.4 88.9216 205.48 89.8816 204.792C90.8416 204.104 92.1936 203.76 93.9376 203.76C95.1056 203.76 96.0976 203.936 96.9136 204.288C97.7456 204.624 98.3776 205.136 98.8096 205.824C99.2576 206.496 99.4816 207.328 99.4816 208.32V212.712C99.4816 213.336 99.7616 213.648 100.322 213.648C100.61 213.648 100.842 213.616 101.018 213.552L100.778 215.88C100.298 216.104 99.7136 216.216 99.0256 216.216C98.4016 216.216 97.8496 216.12 97.3696 215.928C96.8896 215.72 96.5136 215.416 96.2416 215.016C95.9696 214.6 95.8336 214.08 95.8336 213.456V213.312L96.2896 213.144C96.2896 213.832 96.0816 214.408 95.6656 214.872C95.2656 215.336 94.7376 215.68 94.0816 215.904C93.4416 216.128 92.7696 216.24 92.0656 216.24C91.2496 216.24 90.5376 216.112 89.9296 215.856C89.3216 215.6 88.8496 215.232 88.5136 214.752C88.1936 214.256 88.0336 213.648 88.0336 212.928C88.0336 212.064 88.2896 211.352 88.8016 210.792C89.3296 210.216 90.1536 209.816 91.2736 209.592L95.8096 208.656L95.7856 210.816L93.4816 211.296C93.0016 211.392 92.6416 211.536 92.4016 211.728C92.1776 211.904 92.0656 212.176 92.0656 212.544C92.0656 212.896 92.1936 213.16 92.4496 213.336C92.7056 213.512 93.0096 213.6 93.3616 213.6C93.6336 213.6 93.8896 213.56 94.1296 213.48C94.3856 213.4 94.6096 213.28 94.8016 213.12C94.9936 212.944 95.1456 212.728 95.2576 212.472C95.3696 212.216 95.4256 211.912 95.4256 211.56V208.392ZM107.175 200.184V211.728C107.175 212.304 107.311 212.72 107.583 212.976C107.871 213.216 108.263 213.336 108.759 213.336C109.143 213.336 109.471 213.296 109.743 213.216C110.031 213.12 110.287 212.984 110.511 212.808L110.943 215.328C110.543 215.616 110.039 215.84 109.431 216C108.823 216.16 108.199 216.24 107.559 216.24C106.647 216.24 105.855 216.112 105.183 215.856C104.527 215.6 104.015 215.192 103.647 214.632C103.295 214.072 103.111 213.328 103.095 212.4V201.312L107.175 200.184ZM110.751 204V206.904H101.031V204H110.751ZM118.348 203.76C119.612 203.76 120.716 204.008 121.66 204.504C122.62 204.984 123.364 205.696 123.892 206.64C124.436 207.568 124.708 208.688 124.708 210C124.708 211.312 124.436 212.44 123.892 213.384C123.364 214.312 122.62 215.024 121.66 215.52C120.716 216 119.612 216.24 118.348 216.24C117.116 216.24 116.02 216 115.06 215.52C114.1 215.024 113.348 214.312 112.804 213.384C112.276 212.44 112.012 211.312 112.012 210C112.012 208.688 112.276 207.568 112.804 206.64C113.348 205.696 114.1 204.984 115.06 204.504C116.02 204.008 117.116 203.76 118.348 203.76ZM118.348 206.664C117.884 206.664 117.484 206.776 117.148 207C116.812 207.224 116.556 207.584 116.38 208.08C116.204 208.576 116.116 209.216 116.116 210C116.116 210.784 116.204 211.424 116.38 211.92C116.556 212.4 116.812 212.76 117.148 213C117.484 213.224 117.884 213.336 118.348 213.336C118.828 213.336 119.236 213.224 119.572 213C119.908 212.76 120.164 212.4 120.34 211.92C120.516 211.424 120.604 210.784 120.604 210C120.604 209.216 120.516 208.576 120.34 208.08C120.164 207.584 119.908 207.224 119.572 207C119.236 206.776 118.828 206.664 118.348 206.664ZM118.108 198.288H121.9L119.476 202.44H116.5L118.108 198.288ZM127.003 216V204H130.603L130.771 206.592C131.075 205.696 131.523 205 132.115 204.504C132.723 204.008 133.491 203.76 134.419 203.76C134.723 203.76 134.979 203.784 135.187 203.832C135.411 203.88 135.587 203.944 135.715 204.024L135.307 207.384C135.147 207.32 134.939 207.272 134.683 207.24C134.443 207.192 134.147 207.168 133.795 207.168C133.315 207.168 132.867 207.272 132.451 207.48C132.035 207.688 131.699 208 131.443 208.416C131.203 208.816 131.083 209.328 131.083 209.952V216H127.003ZM139.356 202.608C138.524 202.608 137.916 202.456 137.532 202.152C137.164 201.832 136.98 201.336 136.98 200.664C136.98 199.976 137.164 199.48 137.532 199.176C137.916 198.856 138.524 198.696 139.356 198.696C140.172 198.696 140.772 198.856 141.156 199.176C141.54 199.48 141.732 199.976 141.732 200.664C141.732 201.336 141.54 201.832 141.156 202.152C140.772 202.456 140.172 202.608 139.356 202.608ZM141.396 204V216H137.316V204H141.396ZM150.012 203.76C151.276 203.76 152.38 204.008 153.324 204.504C154.284 204.984 155.028 205.696 155.556 206.64C156.1 207.568 156.372 208.688 156.372 210C156.372 211.312 156.1 212.44 155.556 213.384C155.028 214.312 154.284 215.024 153.324 215.52C152.38 216 151.276 216.24 150.012 216.24C148.78 216.24 147.684 216 146.724 215.52C145.764 215.024 145.012 214.312 144.468 213.384C143.94 212.44 143.676 211.312 143.676 210C143.676 208.688 143.94 207.568 144.468 206.64C145.012 205.696 145.764 204.984 146.724 204.504C147.684 204.008 148.78 203.76 150.012 203.76ZM150.012 206.664C149.548 206.664 149.148 206.776 148.812 207C148.476 207.224 148.22 207.584 148.044 208.08C147.868 208.576 147.78 209.216 147.78 210C147.78 210.784 147.868 211.424 148.044 211.92C148.22 212.4 148.476 212.76 148.812 213C149.148 213.224 149.548 213.336 150.012 213.336C150.492 213.336 150.9 213.224 151.236 213C151.572 212.76 151.828 212.4 152.004 211.92C152.18 211.424 152.268 210.784 152.268 210C152.268 209.216 152.18 208.576 152.004 208.08C151.828 207.584 151.572 207.224 151.236 207C150.9 206.776 150.492 206.664 150.012 206.664ZM163.707 216.24C162.507 216.24 161.387 216.048 160.347 215.664C159.323 215.264 158.475 214.696 157.803 213.96L159.723 211.704C160.123 212.216 160.651 212.648 161.307 213C161.979 213.336 162.723 213.504 163.539 213.504C164.035 213.504 164.443 213.432 164.763 213.288C165.083 213.144 165.243 212.92 165.243 212.616C165.243 212.392 165.163 212.216 165.003 212.088C164.843 211.944 164.523 211.824 164.043 211.728L162.363 211.392C160.859 211.088 159.787 210.64 159.147 210.048C158.523 209.44 158.211 208.648 158.211 207.672C158.211 207.016 158.411 206.392 158.811 205.8C159.211 205.192 159.827 204.704 160.659 204.336C161.491 203.952 162.555 203.76 163.851 203.76C165.067 203.76 166.139 203.936 167.067 204.288C167.995 204.64 168.731 205.152 169.275 205.824L167.331 208.032C166.947 207.552 166.451 207.176 165.843 206.904C165.235 206.632 164.627 206.496 164.019 206.496C163.635 206.496 163.307 206.536 163.035 206.616C162.779 206.68 162.587 206.776 162.459 206.904C162.331 207.032 162.267 207.192 162.267 207.384C162.267 207.592 162.363 207.776 162.555 207.936C162.763 208.08 163.139 208.208 163.683 208.32L165.867 208.752C167.099 208.976 167.987 209.384 168.531 209.976C169.075 210.568 169.347 211.28 169.347 212.112C169.347 212.896 169.139 213.6 168.723 214.224C168.307 214.848 167.683 215.344 166.851 215.712C166.019 216.064 164.971 216.24 163.707 216.24Z" fill="white"/>
<path d="M4.32 181.5V155.1H22.84V158.1H7.52V166.62H19.44V169.62H7.52V178.5H23.44V181.5H4.32ZM29.2278 181.5V161.5H32.0278L32.3078 165.98L31.7878 165.54C32.2145 164.473 32.7878 163.62 33.5078 162.98C34.2278 162.313 35.0545 161.833 35.9878 161.54C36.9478 161.247 37.9345 161.1 38.9478 161.1C40.3878 161.1 41.6945 161.38 42.8678 161.94C44.0411 162.473 44.9745 163.3 45.6678 164.42C46.3878 165.54 46.7478 166.967 46.7478 168.7V181.5H43.5478V169.82C43.5478 167.607 43.0678 166.073 42.1078 165.22C41.1745 164.34 40.0145 163.9 38.6278 163.9C37.6678 163.9 36.7078 164.127 35.7478 164.58C34.7878 165.033 33.9878 165.767 33.3478 166.78C32.7345 167.793 32.4278 169.153 32.4278 170.86V181.5H29.2278ZM70.8334 157.82L71.5534 160.66C71.5268 160.66 71.4868 160.66 71.4334 160.66C71.3801 160.66 71.3268 160.66 71.2734 160.66C69.9668 160.66 68.9534 160.927 68.2334 161.46C67.5401 161.967 67.1934 162.793 67.1934 163.94L65.2334 162.94C65.2334 161.9 65.4734 160.993 65.9534 160.22C66.4334 159.447 67.0868 158.86 67.9134 158.46C68.7401 158.033 69.6468 157.82 70.6334 157.82C70.6601 157.82 70.6868 157.82 70.7134 157.82C70.7668 157.82 70.8068 157.82 70.8334 157.82ZM64.7534 178.94C66.6468 178.94 68.1268 179.38 69.1934 180.26C70.2601 181.113 70.7934 182.26 70.7934 183.7C70.7934 185.007 70.3534 186.14 69.4734 187.1C68.6201 188.06 67.4601 188.793 65.9934 189.3C64.5534 189.833 62.9268 190.1 61.1134 190.1C57.9668 190.1 55.6068 189.567 54.0334 188.5C52.4868 187.433 51.7134 186.153 51.7134 184.66C51.7134 183.593 52.0601 182.633 52.7534 181.78C53.4734 180.953 54.6734 180.487 56.3534 180.38L56.0734 180.98C55.1668 180.74 54.3934 180.34 53.7534 179.78C53.1401 179.193 52.8334 178.353 52.8334 177.26C52.8334 176.167 53.2334 175.233 54.0334 174.46C54.8601 173.66 56.0734 173.167 57.6734 172.98L59.7934 174.06H59.3934C58.0868 174.193 57.1534 174.527 56.5934 175.06C56.0601 175.567 55.7934 176.127 55.7934 176.74C55.7934 177.487 56.0601 178.047 56.5934 178.42C57.1534 178.767 57.9268 178.94 58.9134 178.94H64.7534ZM61.0734 187.42C62.6201 187.42 63.8868 187.26 64.8734 186.94C65.8868 186.62 66.6334 186.207 67.1134 185.7C67.5934 185.193 67.8334 184.647 67.8334 184.06C67.8334 183.34 67.5401 182.767 66.9534 182.34C66.3934 181.913 65.3668 181.7 63.8734 181.7H57.7134C56.8601 181.7 56.1401 181.913 55.5534 182.34C54.9668 182.793 54.6734 183.407 54.6734 184.18C54.6734 185.167 55.2334 185.953 56.3534 186.54C57.5001 187.127 59.0734 187.42 61.0734 187.42ZM60.7934 161.1C62.3934 161.1 63.8068 161.393 65.0334 161.98C66.2868 162.54 67.2601 163.327 67.9534 164.34C68.6468 165.353 68.9934 166.527 68.9934 167.86C68.9934 169.167 68.6468 170.34 67.9534 171.38C67.2601 172.393 66.2868 173.193 65.0334 173.78C63.8068 174.34 62.3934 174.62 60.7934 174.62C58.1534 174.62 56.1268 173.993 54.7134 172.74C53.3001 171.46 52.5934 169.833 52.5934 167.86C52.5934 166.527 52.9401 165.353 53.6334 164.34C54.3534 163.327 55.3268 162.54 56.5534 161.98C57.7801 161.393 59.1934 161.1 60.7934 161.1ZM60.7934 163.7C59.4068 163.7 58.2468 164.087 57.3134 164.86C56.3801 165.607 55.9134 166.607 55.9134 167.86C55.9134 169.087 56.3801 170.087 57.3134 170.86C58.2468 171.633 59.4068 172.02 60.7934 172.02C62.1801 172.02 63.3401 171.633 64.2734 170.86C65.2068 170.087 65.6734 169.087 65.6734 167.86C65.6734 166.607 65.2068 165.607 64.2734 164.86C63.3401 164.087 62.1801 163.7 60.7934 163.7ZM83.6425 181.9C81.7492 181.9 80.0558 181.487 78.5625 180.66C77.0958 179.833 75.9492 178.647 75.1225 177.1C74.2958 175.527 73.8825 173.66 73.8825 171.5C73.8825 169.34 74.2958 167.487 75.1225 165.94C75.9492 164.367 77.0825 163.167 78.5225 162.34C79.9625 161.513 81.6025 161.1 83.4425 161.1C85.3092 161.1 86.8958 161.5 88.2025 162.3C89.5358 163.1 90.5492 164.193 91.2425 165.58C91.9358 166.94 92.2825 168.473 92.2825 170.18C92.2825 170.633 92.2692 171.047 92.2425 171.42C92.2158 171.793 92.1758 172.127 92.1225 172.42H75.9625V169.58H90.7225L89.0825 169.9C89.0825 167.98 88.5492 166.5 87.4825 165.46C86.4425 164.42 85.0692 163.9 83.3625 163.9C82.0558 163.9 80.9225 164.207 79.9625 164.82C79.0292 165.407 78.2958 166.273 77.7625 167.42C77.2558 168.54 77.0025 169.9 77.0025 171.5C77.0025 173.073 77.2692 174.433 77.8025 175.58C78.3358 176.727 79.0825 177.607 80.0425 178.22C81.0292 178.807 82.2025 179.1 83.5625 179.1C85.0292 179.1 86.2158 178.82 87.1225 178.26C88.0558 177.7 88.8025 176.94 89.3625 175.98L91.8825 177.46C91.3758 178.367 90.7225 179.153 89.9225 179.82C89.1492 180.487 88.2292 181.007 87.1625 181.38C86.1225 181.727 84.9492 181.9 83.6425 181.9ZM107.253 154.7C109.573 154.7 111.573 155.18 113.253 156.14C114.933 157.073 116.333 158.46 117.453 160.3L114.773 162.38C113.786 160.673 112.666 159.473 111.413 158.78C110.186 158.06 108.693 157.7 106.933 157.7C105.52 157.7 104.346 157.9 103.413 158.3C102.506 158.7 101.84 159.233 101.413 159.9C100.986 160.54 100.773 161.273 100.773 162.1C100.773 163.033 101.066 163.86 101.653 164.58C102.24 165.273 103.413 165.82 105.173 166.22L110.893 167.5C113.426 168.06 115.186 168.913 116.173 170.06C117.186 171.18 117.693 172.58 117.693 174.26C117.693 175.753 117.266 177.087 116.413 178.26C115.586 179.407 114.413 180.3 112.893 180.94C111.373 181.58 109.586 181.9 107.533 181.9C105.613 181.9 103.92 181.647 102.453 181.14C101.013 180.607 99.7731 179.9 98.7331 179.02C97.6931 178.14 96.8398 177.153 96.1731 176.06L98.9731 173.78C99.4798 174.793 100.133 175.687 100.933 176.46C101.733 177.233 102.693 177.833 103.813 178.26C104.96 178.687 106.266 178.9 107.733 178.9C109.093 178.9 110.266 178.74 111.253 178.42C112.266 178.073 113.04 177.58 113.573 176.94C114.106 176.273 114.373 175.473 114.373 174.54C114.373 173.687 114.093 172.927 113.533 172.26C112.973 171.567 111.92 171.047 110.373 170.7L104.173 169.3C102.546 168.927 101.226 168.42 100.213 167.78C99.2265 167.113 98.5065 166.34 98.0531 165.46C97.6265 164.553 97.4131 163.58 97.4131 162.54C97.4131 161.127 97.7998 159.833 98.5731 158.66C99.3731 157.46 100.506 156.5 101.973 155.78C103.466 155.06 105.226 154.7 107.253 154.7ZM124.398 181.5V155.1H142.918V158.1H127.598V166.62H139.518V169.62H127.598V178.5H143.518V181.5H124.398ZM159.226 155.1C161.013 155.1 162.559 155.433 163.866 156.1C165.199 156.74 166.239 157.66 166.986 158.86C167.733 160.06 168.106 161.487 168.106 163.14C168.106 164.793 167.733 166.22 166.986 167.42C166.239 168.62 165.199 169.553 163.866 170.22C162.559 170.86 161.013 171.18 159.226 171.18H153.106V181.5H149.906V155.1H159.226ZM158.746 168.18C160.826 168.18 162.346 167.753 163.306 166.9C164.266 166.02 164.746 164.767 164.746 163.14C164.746 161.487 164.266 160.233 163.306 159.38C162.346 158.527 160.826 158.1 158.746 158.1H153.106V168.18H158.746Z" fill="#E2E3E3"/>
<path d="M110.855 55.9574L86.0001 131.5V80.2057L60.0646 71.8121L86.0001 0V48.4965L110.855 55.9574Z" fill="#55D241"/>
<path d="M153 41.0355L128.145 102.589L105.452 94.195L119.5 55.0248L93.5645 46.6312V24.2482L153 41.0355Z" fill="#030BCE"/>
<path d="M76.2742 80.2057V104.454L19 87.6667L40.6129 26.1135L65.4677 32.6418L50.3387 72.7447L76.2742 80.2057Z" fill="#030BCE"/>
</svg>
